<svg width="60" height="60" viewBox="0 0 60 60" fill="none" xmlns="http://www.w3.org/2000/svg">
<path d="M22.2646 37.9072C22.5729 37.9072 22.8752 37.783 23.0932 37.5639C23.3111 37.3459 23.4365 37.0447 23.4365 36.7354C23.4365 36.4271 23.3111 36.1248 23.0932 35.9068C22.8752 35.6889 22.574 35.5635 22.2646 35.5635C21.9564 35.5635 21.6541 35.6889 21.4361 35.9068C21.2182 36.1248 21.0928 36.4271 21.0928 36.7354C21.0928 37.0447 21.2182 37.3459 21.4361 37.5639C21.6541 37.783 21.9564 37.9072 22.2646 37.9072Z" fill="black"/>
<path d="M50.1355 27.7766V22.98H51.6789C52.9066 22.98 53.9054 21.9812 53.9054 20.7535V11.6014C53.9054 10.3736 52.9066 9.37485 51.6789 9.37485H44.3729C45.8874 7.88929 46.8294 5.82202 46.8294 3.53807C46.8294 2.89085 46.3047 2.36621 45.6575 2.36621C45.0103 2.36621 44.4857 2.89085 44.4857 3.53807C44.4857 5.72745 43.2734 7.63804 41.4854 8.6367C41.9325 7.8096 42.1868 6.86368 42.1868 5.85928C42.1868 2.62847 39.5584 0 36.3276 0C33.679 0 31.4365 1.76681 30.7138 4.18341C29.6953 3.32854 28.3834 2.81246 26.9527 2.81246C25.522 2.81246 24.2101 3.32854 23.1916 4.18341C22.4689 1.76681 20.2264 0 17.5779 0C14.347 0 11.7186 2.62847 11.7186 5.85928C11.7186 6.86368 11.9729 7.80972 12.42 8.6367C10.632 7.63804 9.41974 5.72733 9.41974 3.53795C9.41974 2.89074 8.8951 2.3661 8.24788 2.3661C7.60066 2.3661 7.07602 2.89074 7.07602 3.53795C7.07602 5.8219 8.01796 7.88917 9.53247 9.37474H2.22653C0.998773 9.37474 0 10.3735 0 11.6013V20.7533C0 21.9811 0.998773 22.9799 2.22653 22.9799H3.76986V51.7959C3.76986 53.7344 5.34695 55.3115 7.28543 55.3115H31.4655C34.4976 58.2135 38.6067 59.9989 43.1253 59.9989C52.43 59.9989 60 52.429 60 43.1242C60 36.3195 55.9506 30.4434 50.1355 27.7766ZM32.812 8.67174V5.85928C32.812 3.9208 34.3891 2.34371 36.3276 2.34371C38.266 2.34371 39.8431 3.9208 39.8431 5.85928C39.8431 7.79777 38.266 9.37485 36.3276 9.37485H32.812V8.67174ZM32.812 11.7186H51.5617V20.6363H32.812V11.7186ZM32.812 22.98H47.7918V26.9064C46.3092 26.4792 44.7436 26.2496 43.1253 26.2496C39.2444 26.2496 35.6659 27.5672 32.812 29.7776V22.98ZM23.4371 8.67174C23.4371 6.73325 25.0142 5.15617 26.9527 5.15617C28.8912 5.15617 30.4683 6.73325 30.4683 8.67174V9.37485H23.4371V8.67174ZM23.4371 11.7186H30.4683V20.6363H23.4371V11.7186ZM17.5779 2.34371C19.5163 2.34371 21.0934 3.9208 21.0934 5.85928V8.67174V9.37485H17.5779C15.6394 9.37485 14.0623 7.79777 14.0623 5.85928C14.0623 3.9208 15.6394 2.34371 17.5779 2.34371ZM2.34371 20.6363V11.7186H21.0934V20.6363H4.94172H2.34371ZM23.4371 52.9679V42.0092C23.4371 41.362 22.9125 40.8373 22.2653 40.8373C21.6181 40.8373 21.0934 41.362 21.0934 42.0092V52.9679H7.28543C6.63927 52.9679 6.11358 52.4422 6.11358 51.7961V22.98H21.0934V31.4625C21.0934 32.1097 21.6181 32.6343 22.2653 32.6343C22.9125 32.6343 23.4371 32.1097 23.4371 31.4625V22.98H30.4683V31.9769C27.8448 34.952 26.2505 38.8553 26.2505 43.1243C26.2505 46.7952 27.4294 50.1954 29.4274 52.9679H23.4371ZM43.1253 57.6553C35.1128 57.6553 28.5942 51.1368 28.5942 43.1243C28.5942 35.1119 35.1128 28.5933 43.1253 28.5933C51.1377 28.5933 57.6563 35.1119 57.6563 43.1243C57.6563 51.1368 51.1377 57.6553 43.1253 57.6553Z" fill="black"/>
<path d="M46.9466 35.412C46.3641 35.1292 45.6633 35.372 45.3805 35.9542L38.9325 49.232C38.6497 49.8142 38.8925 50.5153 39.4747 50.7981C39.6396 50.8781 39.8139 50.9161 39.9857 50.9161C40.4204 50.9161 40.838 50.6732 41.0408 50.2559L47.4888 36.978C47.7715 36.3958 47.5287 35.6946 46.9466 35.412Z" fill="black"/>
<path d="M40.1636 34.7538C39.4552 34.0454 38.5133 33.6553 37.5116 33.6553C36.5097 33.6553 35.5679 34.0454 34.8595 34.7538C33.3971 36.2162 33.3971 38.5957 34.8595 40.058C35.5907 40.7893 36.551 41.1548 37.5116 41.1548C38.4719 41.1548 39.4326 40.7891 40.1637 40.058C41.6259 38.5957 41.6259 36.2162 40.1636 34.7538ZM38.5064 38.4007C37.9578 38.9493 37.0652 38.9492 36.5167 38.4007C35.9682 37.8521 35.9682 36.9596 36.5167 36.4109C36.7824 36.1452 37.1357 35.9989 37.5116 35.9989C37.8874 35.9989 38.2406 36.1453 38.5064 36.4111C39.0549 36.9596 39.0549 37.8522 38.5064 38.4007Z" fill="black"/>
<path d="M46.296 46.1905C44.8336 47.6529 44.8336 50.0324 46.296 51.4948C47.0044 52.2031 47.9464 52.5933 48.9481 52.5933C49.9499 52.5933 50.8918 52.2031 51.6001 51.4948C53.0625 50.0324 53.0625 47.6529 51.6001 46.1905C50.1378 44.7281 47.7584 44.7282 46.296 46.1905ZM49.9429 49.8375C49.6772 50.1033 49.3239 50.2495 48.9481 50.2495C48.5723 50.2495 48.2191 50.1031 47.9533 49.8374C47.4047 49.2888 47.4047 48.3963 47.9533 47.8478C48.2276 47.5734 48.5878 47.4363 48.9481 47.4363C49.3083 47.4363 49.6687 47.5734 49.9429 47.8478C50.4914 48.3963 50.4914 49.2889 49.9429 49.8375Z" fill="black"/>
</svg>
