<svg width="60" height="55" viewBox="0 0 60 55" fill="none" xmlns="http://www.w3.org/2000/svg">
<path d="M55.9937 7.16105C53.5813 7.39373 51.7774 9.47999 51.8955 11.9007L52.0765 19.3229C50.0921 19.5202 48.3551 20.7406 47.4967 22.5406L44.7843 28.2356C44.3627 29.1186 43.7473 29.8958 42.9848 30.5088L42.421 30.9609C39.5541 33.2488 37.9563 36.7715 38.1246 40.4353L37.0163 39.908C36.514 39.6684 35.9124 39.8819 35.6733 40.3842L32.6996 46.6282C32.4606 47.1309 32.6736 47.732 33.1758 47.9711L46.8798 54.4975C47.1209 54.6126 47.3978 54.6273 47.6497 54.5378C47.9016 54.4483 48.1077 54.2628 48.2223 54.0213L51.1965 47.7763C51.4356 47.2741 51.2226 46.6729 50.7203 46.4338L50.1354 46.1554L49.9893 44.202C49.9308 43.439 50.1713 42.6829 50.6598 42.0936L57.7563 33.5061C57.7706 33.4889 57.7843 33.4711 57.7976 33.4529C59.2606 31.4105 60.0319 28.9538 59.999 26.442C59.998 26.3943 59.9936 26.3466 59.9862 26.2994L57.0868 8.00618C57.0032 7.47982 56.524 7.1094 55.9937 7.16105ZM46.8366 52.2449L34.9522 46.5849L37.0596 42.1595L48.944 47.8196L46.8366 52.2449ZM56.1812 32.2492L49.1068 40.8102C48.2858 41.7999 47.8819 43.0701 47.9798 44.352L48.0403 45.1573L40.2507 41.4477C39.6973 38.0741 41.0092 34.6646 43.6814 32.5326L44.2451 32.0805C45.2447 31.2772 46.051 30.2589 46.6039 29.1019L49.3159 23.4069C50.0252 21.9232 51.6313 21.0879 53.2537 21.3595L49.2893 29.6843C49.0537 30.1861 49.2672 30.7838 49.7679 31.0223C50.2682 31.2604 50.8674 31.0499 51.1084 30.5506L55.5663 21.1898C55.8053 20.687 55.5923 20.0859 55.0896 19.8468C54.7703 19.6953 54.4378 19.5738 54.0959 19.4833L53.9094 11.8393C53.9094 11.8304 53.9094 11.8215 53.9085 11.8132C53.8568 10.8215 54.391 9.89173 55.2731 9.4362L57.985 26.5419C57.9968 28.5868 57.3662 30.5831 56.1812 32.2492Z" fill="black"/>
<path d="M2.2437 33.5061L9.3402 42.0936C9.82868 42.6829 10.0692 43.439 10.0107 44.202L9.86459 46.1554L9.27969 46.4338C8.77744 46.6729 8.56444 47.2741 8.80351 47.7763L11.7777 54.0213C11.8923 54.2628 12.0984 54.4483 12.3503 54.5378C12.6022 54.6273 12.8791 54.6126 13.1206 54.4975L26.8242 47.9711C27.3264 47.732 27.5394 47.1309 27.3004 46.6282L24.3262 40.3837C24.0871 39.8814 23.486 39.6679 22.9837 39.9075L21.8754 40.4348C22.0432 36.771 20.4459 33.2483 17.579 30.9604L17.0152 30.5083C16.2522 29.8953 15.6373 29.1186 15.2153 28.2356L12.5028 22.5406C11.6444 20.7406 9.90739 19.5202 7.92297 19.3229L8.10449 11.9007C8.22255 9.48048 6.41866 7.39373 4.00626 7.16105C3.47597 7.1094 2.99683 7.47982 2.91321 8.00618L0.013804 26.2994C0.00593317 26.3466 0.00199778 26.3943 0.00101393 26.442C-0.031945 28.9538 0.739393 31.4105 2.20238 33.4529C2.21566 33.4711 2.22943 33.4889 2.2437 33.5061ZM25.0478 46.5854L13.1634 52.2449L11.056 47.8196L22.9404 42.1595L25.0478 46.5854ZM4.72693 9.43571C5.60895 9.89123 6.14318 10.8215 6.09153 11.8127C6.09153 11.8215 6.09104 11.8304 6.09055 11.8393L5.90411 19.4833C5.56222 19.5733 5.22919 19.6948 4.90993 19.8468C4.40767 20.0859 4.19418 20.6875 4.43375 21.1898L8.89156 30.5511C9.13261 31.0504 9.73177 31.2609 10.2321 31.0223C10.7323 30.7843 10.9463 30.1866 10.7107 29.6848L6.74628 21.3595C8.36865 21.0874 9.97527 21.9227 10.6841 23.4069L13.3966 29.1019C13.9495 30.2589 14.7553 31.2772 15.7549 32.0805L16.3186 32.5326C18.9908 34.6646 20.3027 38.0741 19.7493 41.4477L11.9597 45.1573L12.0202 44.352C12.1181 43.0701 11.7142 41.7999 10.8937 40.8102L3.81884 32.2492C2.63429 30.5831 2.00315 28.5868 2.01544 26.5419L4.72693 9.43571Z" fill="black"/>
<path d="M42.0152 21.7081C42.4329 21.5748 42.7172 21.1877 42.7196 20.7489V4.78101C42.7172 4.34271 42.4329 3.95556 42.0152 3.82225L30.3128 0.0487005C30.1111 -0.0162335 29.8942 -0.0162335 29.6925 0.0487005L17.9867 3.82176C17.5685 3.95507 17.2842 4.34222 17.2812 4.78101V20.7489C17.2837 21.1877 17.568 21.5743 17.9857 21.7081L29.6881 25.4812C29.7884 25.5132 29.8937 25.5294 29.999 25.5294C30.1052 25.5294 30.211 25.5132 30.3118 25.4812L42.0152 21.7081ZM31.0079 23.1391V9.28655L40.7047 6.16332V20.0159L31.0079 23.1391ZM30.0004 2.06608L38.4178 4.78101L30.0004 7.49496L21.5831 4.78101L30.0004 2.06608ZM19.2962 6.16381L28.993 9.28704V23.1396L19.2962 20.0164V6.16381Z" fill="black"/>
</svg>
