<svg width="60" height="60" viewBox="0 0 60 60" fill="none" xmlns="http://www.w3.org/2000/svg">
<path d="M51.1813 32.8899V28.1249H52.7342C53.3813 28.1249 53.906 27.6002 53.906 26.953V19.9218C53.906 19.7951 53.8855 19.6693 53.8452 19.5491L47.557 0.799216C47.3969 0.321796 46.9496 0 46.4459 0H7.46024C6.95669 0 6.50927 0.321796 6.34919 0.799216L0.0609373 19.5491C0.0206249 19.6693 0 19.795 0 19.9218V26.953C0 27.6002 0.524646 28.1249 1.17187 28.1249H2.72483V48.0467C2.72483 48.6939 3.24948 49.2186 3.8967 49.2186H32.2624C33.7444 55.3953 39.3129 60 45.9374 60C53.6915 60 59.9999 53.6916 59.9999 45.9376C59.9999 40.0361 56.3455 34.9729 51.1813 32.8899ZM33.9408 25.7811V21.0937H51.5623V25.7811H33.9408ZM22.3091 28.1249H31.5971V32.6598C31.5971 32.8542 31.5376 32.9667 31.5001 32.9919C31.4932 32.9965 31.4611 32.9945 31.414 32.9753L27.3943 31.3419C27.1115 31.2271 26.7949 31.2271 26.512 31.3419L22.4925 32.9753C22.4453 32.9945 22.4131 32.9965 22.4063 32.992C22.3688 32.9667 22.3092 32.8542 22.3092 32.6599V28.1249H22.3091ZM22.3091 25.7811V21.0937H31.5971V25.7811H22.3091ZM30.2638 2.34374L31.505 18.7499H22.401L23.6423 2.34374H30.2638ZM51.1051 18.7499H33.8556L32.6143 2.34374H45.603L51.1051 18.7499ZM8.30317 2.34374H21.2918L20.0506 18.7499H2.801L8.30317 2.34374ZM2.34374 25.7811V21.0937H19.9653V25.7811H2.34374ZM5.06857 46.8748V44.531H10.3415C10.9887 44.531 11.5134 44.0063 11.5134 43.3591C11.5134 42.7119 10.9887 42.1872 10.3415 42.1872H5.06857V28.1249H19.9653V32.6598C19.9653 33.6222 20.3779 34.452 21.0974 34.9363C21.7661 35.3863 22.5961 35.4629 23.3746 35.1466L26.953 33.6924L30.5314 35.1465C30.848 35.2752 31.1732 35.3388 31.4923 35.3388C31.9583 35.3388 32.4118 35.2032 32.8085 34.9361C33.528 34.4519 33.9406 33.6221 33.9406 32.6597V28.1249H48.8373V32.1765C47.9011 31.9794 46.9312 31.8751 45.9373 31.8751C38.1833 31.8751 31.8749 38.1835 31.8749 45.9376C31.8749 46.2526 31.8864 46.5649 31.9069 46.8748H5.06857ZM45.9374 57.6563C39.4756 57.6563 34.2187 52.3993 34.2187 45.9376C34.2187 39.4759 39.4756 34.2189 45.9374 34.2189C52.3992 34.2189 57.6561 39.4759 57.6561 45.9376C57.6561 52.3993 52.3992 57.6563 45.9374 57.6563Z" fill="black"/>
<path d="M15.6143 42.187C14.967 42.187 14.4424 42.7117 14.4424 43.3589C14.4424 44.0061 14.967 44.5308 15.6143 44.5308H15.6151C16.2623 44.5308 16.7866 44.0061 16.7866 43.3589C16.7866 42.7117 16.2615 42.187 15.6143 42.187Z" fill="black"/>
<path d="M48.9694 41.2501H43.3905L43.7338 40.9068C44.1914 40.4492 44.1914 39.7072 43.7338 39.2495C43.276 38.7918 42.5342 38.7918 42.0764 39.2495L39.7326 41.5932C39.275 42.0508 39.275 42.7929 39.7326 43.2506L42.0764 45.5943C42.3053 45.8232 42.6051 45.9376 42.905 45.9376C43.2049 45.9376 43.5048 45.8232 43.7337 45.5943C44.1913 45.1367 44.1913 44.3947 43.7337 43.937L43.3904 43.5937H48.9692C50.2616 43.5937 51.313 44.6451 51.313 45.9375C51.313 47.2298 50.2616 48.2812 48.9692 48.2812H39.3892C38.7421 48.2812 38.2173 48.8059 38.2173 49.4531C38.2173 50.1003 38.7421 50.625 39.3892 50.625H48.9692C51.5539 50.625 53.6567 48.5222 53.6567 45.9375C53.6567 43.3528 51.554 41.2501 48.9694 41.2501Z" fill="black"/>
</svg>
