<svg width="60" height="41" viewBox="0 0 60 41" fill="none" xmlns="http://www.w3.org/2000/svg">
<path d="M49.0531 29.8323C47.5871 29.8323 46.1943 30.405 45.1436 31.4409C44.0929 32.4889 43.5064 33.8538 43.5064 35.3161C43.5064 36.7785 44.0806 38.1434 45.1436 39.1914C46.2065 40.2272 47.5871 40.8 49.0531 40.8C52.0586 40.8 54.5021 38.3384 54.5021 35.3161C54.5021 32.2939 52.0586 29.8323 49.0531 29.8323ZM49.0531 38.3627C47.3671 38.3627 45.9499 36.9735 45.9499 35.3161C45.9499 33.6588 47.3671 32.2695 49.0531 32.2695C50.7147 32.2695 52.0586 33.6344 52.0586 35.3161C52.0586 36.9979 50.7147 38.3627 49.0531 38.3627ZM50.4704 11.5649C50.2505 11.3577 49.9572 11.248 49.6518 11.248H43.3842C42.7123 11.248 42.1625 11.7964 42.1625 12.4667V22.4595C42.1625 23.1297 42.7123 23.6781 43.3842 23.6781H53.3293C54.0012 23.6781 54.551 23.1297 54.551 22.4595V15.7692C54.551 15.428 54.4044 15.0989 54.1478 14.8674L50.4704 11.5649ZM52.1075 21.2409H44.606V13.6731H49.1753L52.1075 16.3054V21.2409ZM19.2181 29.8323C17.752 29.8323 16.3592 30.405 15.3085 31.4409C14.2578 32.4889 13.6714 33.8538 13.6714 35.3161C13.6714 36.7785 14.2456 38.1434 15.3085 39.1914C16.3714 40.2272 17.752 40.8 19.2181 40.8C22.2236 40.8 24.6671 38.3384 24.6671 35.3161C24.6671 32.2939 22.2236 29.8323 19.2181 29.8323ZM19.2181 38.3627C17.5321 38.3627 16.1148 36.9735 16.1148 35.3161C16.1148 33.6588 17.5321 32.2695 19.2181 32.2695C20.8797 32.2695 22.2236 33.6344 22.2236 35.3161C22.2236 36.9979 20.8797 38.3627 19.2181 38.3627ZM11.069 31.3312H8.61332V28.0896C8.61332 27.4194 8.06353 26.871 7.39157 26.871C6.71961 26.871 6.16982 27.4194 6.16982 28.0896V32.5498C6.16982 33.2201 6.71961 33.7685 7.39157 33.7685H11.069C11.741 33.7685 12.2908 33.2201 12.2908 32.5498C12.2908 31.8796 11.741 31.3312 11.069 31.3312ZM17.2633 24.6896C17.2633 24.0194 16.7135 23.471 16.0415 23.471H1.22175C0.549786 23.471 0 24.0194 0 24.6896C0 25.3599 0.549786 25.9082 1.22175 25.9082H16.0415C16.7135 25.9082 17.2633 25.372 17.2633 24.6896ZM3.70189 20.2903L18.5217 20.3756C19.1936 20.3756 19.7434 19.8394 19.7556 19.1692C19.7679 18.4867 19.2181 17.9384 18.5461 17.9384L3.72633 17.853C3.71411 17.853 3.71411 17.853 3.71411 17.853C3.04215 17.853 2.49236 18.3892 2.49236 19.0595C2.48015 19.7419 3.02993 20.2903 3.70189 20.2903ZM6.19426 14.7577H21.014C21.686 14.7577 22.2358 14.2093 22.2358 13.5391C22.2358 12.8688 21.686 12.3204 21.014 12.3204H6.19426C5.5223 12.3204 4.97251 12.8688 4.97251 13.5391C4.97251 14.2093 5.5223 14.7577 6.19426 14.7577ZM59.548 13.1125L50.8002 5.88602C50.5803 5.70323 50.3115 5.60574 50.0183 5.60574H39.7312V1.21864C39.7312 0.548387 39.1814 0 38.5095 0H7.39157C6.71961 0 6.16982 0.548387 6.16982 1.21864V10.1391C6.16982 10.8093 6.71961 11.3577 7.39157 11.3577C8.06353 11.3577 8.61332 10.8093 8.61332 10.1391V2.43728H37.2999V31.3312H27.2816C26.6097 31.3312 26.0599 31.8796 26.0599 32.5498C26.0599 33.2201 26.6097 33.7685 27.2816 33.7685H42.1991C42.8711 33.7685 43.4209 33.2201 43.4209 32.5498C43.4209 31.8796 42.8711 31.3312 42.1991 31.3312H39.7434V8.04301H49.5907L57.5565 14.6237L57.471 31.3068H56.2004C55.5284 31.3068 54.9786 31.8552 54.9786 32.5254C54.9786 33.1957 55.5284 33.7441 56.2004 33.7441H58.6805C59.3525 33.7441 59.9023 33.2079 59.9023 32.5376L60 14.0631C59.9878 13.6975 59.829 13.3441 59.548 13.1125Z" fill="black"/>
</svg>
