<svg width="15" height="13" viewBox="0 0 15 13" fill="none" xmlns="http://www.w3.org/2000/svg">
<path d="M3.24322 1.44509C3.24303 1.82816 3.09067 2.19546 2.81967 2.46619C2.54866 2.73693 2.1812 2.88892 1.79813 2.88873C1.41507 2.88854 1.04776 2.73618 0.777026 2.46517C0.506291 2.19417 0.354301 1.82671 0.354492 1.44364C0.354684 1.06057 0.507041 0.693269 0.778047 0.422534C1.04905 0.151798 1.41651 -0.000191354 1.79958 1.80807e-07C2.18265 0.000191715 2.54995 0.152549 2.82069 0.423555C3.09142 0.694562 3.24341 1.06202 3.24322 1.44509V1.44509ZM3.28655 3.95828H0.397823V13H3.28655V3.95828ZM7.85074 3.95828H4.97646V13H7.82186V8.25526C7.82186 5.61208 11.2667 5.36654 11.2667 8.25526V13H14.1193V7.2731C14.1193 2.81723 9.02068 2.98333 7.82186 5.17155L7.85074 3.95828V3.95828Z" fill="#CCCCCC"/>
</svg>
