<svg width="14" height="13" viewBox="0 0 14 13" fill="none" xmlns="http://www.w3.org/2000/svg">
<path d="M6.85449 0C8.62054 0 8.84089 0.00649996 9.53379 0.039C10.226 0.0715 10.6973 0.18005 11.112 0.34125C11.541 0.50635 11.9024 0.72995 12.2638 1.0907C12.5943 1.41563 12.8501 1.80868 13.0132 2.2425C13.1738 2.65655 13.283 3.12845 13.3155 3.8207C13.346 4.5136 13.3545 4.73395 13.3545 6.5C13.3545 8.26605 13.348 8.4864 13.3155 9.1793C13.283 9.87155 13.1738 10.3428 13.0132 10.7575C12.8505 11.1916 12.5947 11.5847 12.2638 11.9093C11.9388 12.2397 11.5457 12.4954 11.112 12.6587C10.6979 12.8193 10.226 12.9285 9.53379 12.961C8.84089 12.9915 8.62054 13 6.85449 13C5.08844 13 4.86809 12.9935 4.17519 12.961C3.48294 12.9285 3.01169 12.8193 2.59699 12.6587C2.163 12.4959 1.76988 12.2401 1.44519 11.9093C1.11461 11.5844 0.858848 11.1914 0.695742 10.7575C0.534542 10.3434 0.425992 9.87155 0.393492 9.1793C0.362942 8.4864 0.354492 8.26605 0.354492 6.5C0.354492 4.73395 0.360992 4.5136 0.393492 3.8207C0.425992 3.1278 0.534542 2.6572 0.695742 2.2425C0.858396 1.80842 1.11421 1.41526 1.44519 1.0907C1.76998 0.76 2.16307 0.504224 2.59699 0.34125C3.01169 0.18005 3.48229 0.0715 4.17519 0.039C4.86809 0.00844996 5.08844 0 6.85449 0ZM6.85449 3.25C5.99254 3.25 5.16589 3.59241 4.55639 4.2019C3.9469 4.8114 3.60449 5.63805 3.60449 6.5C3.60449 7.36195 3.9469 8.1886 4.55639 8.7981C5.16589 9.40759 5.99254 9.75 6.85449 9.75C7.71645 9.75 8.5431 9.40759 9.15259 8.7981C9.76208 8.1886 10.1045 7.36195 10.1045 6.5C10.1045 5.63805 9.76208 4.8114 9.15259 4.2019C8.5431 3.59241 7.71645 3.25 6.85449 3.25V3.25ZM11.0795 3.0875C11.0795 2.87201 10.9939 2.66535 10.8415 2.51298C10.6891 2.3606 10.4825 2.275 10.267 2.275C10.0515 2.275 9.84484 2.3606 9.69247 2.51298C9.54009 2.66535 9.45449 2.87201 9.45449 3.0875C9.45449 3.30299 9.54009 3.50965 9.69247 3.66202C9.84484 3.8144 10.0515 3.9 10.267 3.9C10.4825 3.9 10.6891 3.8144 10.8415 3.66202C10.9939 3.50965 11.0795 3.30299 11.0795 3.0875ZM6.85449 4.55C7.37166 4.55 7.86765 4.75545 8.23335 5.12114C8.59905 5.48684 8.80449 5.98283 8.80449 6.5C8.80449 7.01717 8.59905 7.51316 8.23335 7.87886C7.86765 8.24455 7.37166 8.45 6.85449 8.45C6.33732 8.45 5.84133 8.24455 5.47563 7.87886C5.10994 7.51316 4.90449 7.01717 4.90449 6.5C4.90449 5.98283 5.10994 5.48684 5.47563 5.12114C5.84133 4.75545 6.33732 4.55 6.85449 4.55V4.55Z" fill="#CCCCCC"/>
</svg>
