<svg width="14" height="16" viewBox="0 0 14 16" fill="none" xmlns="http://www.w3.org/2000/svg">
<path fill-rule="evenodd" clip-rule="evenodd" d="M0 6.65425C0 2.97431 3.07511 0 6.79473 0C10.5249 0 13.6 2.97431 13.6 6.65425C13.6 8.50857 12.9256 10.2301 11.8156 11.6893C10.5911 13.2988 9.08177 14.7012 7.38281 15.8019C6.99401 16.0563 6.64313 16.0755 6.21633 15.8019C4.5078 14.7012 2.99847 13.2988 1.7844 11.6893C0.673585 10.2301 0 8.50857 0 6.65425ZM4.55539 6.86145C4.55539 8.09417 5.56136 9.06377 6.79473 9.06377C8.02897 9.06377 9.04465 8.09417 9.04465 6.86145C9.04465 5.63825 8.02897 4.62147 6.79473 4.62147C5.56136 4.62147 4.55539 5.63825 4.55539 6.86145Z" fill="#76A713"/>
</svg>
