<svg width="20" height="16" viewBox="0 0 20 16" fill="none" xmlns="http://www.w3.org/2000/svg">
<path fill-rule="evenodd" clip-rule="evenodd" d="M14.939 0C16.28 0 17.57 0.471111 18.519 1.31644C19.469 2.16 20 3.29778 20 4.48889V11.5111C20 13.9911 17.73 16 14.939 16H5.06C2.269 16 0 13.9911 0 11.5111V4.48889C0 2.00889 2.259 0 5.06 0H14.939ZM16.53 5.81333L16.61 5.74222C16.849 5.48444 16.849 5.11111 16.599 4.85333C16.46 4.72089 16.269 4.64 16.07 4.62222C15.86 4.61244 15.66 4.67556 15.509 4.8L11 8C10.42 8.42756 9.589 8.42756 9.00001 8L4.5 4.8C4.189 4.59556 3.759 4.62222 3.5 4.86222C3.23 5.10222 3.2 5.48444 3.429 5.75111L3.56 5.86667L8.11001 9.02222C8.67001 9.41333 9.34901 9.62667 10.06 9.62667C10.769 9.62667 11.46 9.41333 12.019 9.02222L16.53 5.81333Z" fill="#76A713"/>
</svg>
