<svg width="58" height="52" viewBox="0 0 58 52" fill="none" xmlns="http://www.w3.org/2000/svg">
<path d="M57.8112 1.72926C54.7016 6.88005 51.3977 11.9337 48.2881 17.0843C47.705 18.0561 46.0531 17.6676 46.1501 16.5012C46.1501 14.2659 46.2473 12.1279 46.2473 9.89262C44.6925 11.5448 44.3038 13.4886 44.0122 15.8209C43.8179 16.7927 43.4292 17.8619 42.3604 18.1533C40.7085 18.6393 38.8621 16.9871 37.5989 16.1124C34.3921 13.8772 31.4768 11.2531 27.9786 9.40654C23.8972 7.36566 23.8 10.2812 24.6746 13.4883C25.5492 16.8898 27.104 20.2912 28.8531 23.304C31.9627 28.5519 35.5583 33.9943 36.4328 40.1169C36.9186 43.5184 35.1695 48.6692 30.8936 48.4748C25.6464 48.2804 19.6214 44.393 16.2202 40.5057C14.2768 38.562 3.19883 23.9843 2.1299 32.3421C1.35251 38.4648 6.40559 45.948 9.41801 51.0016C9.80671 51.6819 8.83496 52.3622 8.34909 51.7791C4.55943 47.1144 1.54701 41.1861 0.186567 35.2578C-0.493656 32.0507 0.575266 26.1225 5.23966 27.3859C10.6814 28.8436 14.2769 34.9663 17.7752 39.048C19.913 41.672 23.3142 43.6157 26.2294 45.1707C32.4486 48.475 35.2667 43.6157 33.7119 37.979C31.7685 31.0789 26.8125 25.4423 23.9944 18.9308C23.0226 16.5984 19.5243 8.82375 23.3142 6.87989C27.687 4.64465 33.5175 10.1843 36.6271 12.6138C36.4328 12.5166 41.583 16.6956 41.8745 15.8207C42.1661 14.9461 42.1661 13.8772 42.3606 12.9053C42.7491 11.0588 43.5267 9.60091 44.79 8.43486C42.9436 8.53204 41.0973 8.43486 39.251 8.1433C38.2792 7.94893 38.1821 6.49116 38.9595 6.00523C44.4984 2.89532 50.7176 2.11784 56.6453 0.0769653C57.5197 -0.311771 58.3943 0.854443 57.8112 1.72926ZM47.3163 6.68553C47.8994 6.68553 48.0937 7.17146 47.9966 7.56019C48.2881 7.75456 48.4824 8.04612 48.4824 8.43486C48.4824 9.69826 48.4824 11.0588 48.4824 12.3222C50.4259 9.21233 52.3694 6.19944 54.3129 3.08953C50.6203 4.15857 46.8305 4.93604 43.3323 6.39397C44.5954 6.49116 45.9559 6.58834 47.3163 6.68553Z" fill="white" fill-opacity="0.5"/>
</svg>
